<svg preserveAspectRatio="none" width="100%" height="100%" overflow="visible" style="display: block;" viewBox="0 0 16 16" fill="none" xmlns="http://www.w3.org/2000/svg">
<g id="oxy-social-icons-icon-facebook">
<g id="Vector">
<path d="M9.5 3H12V0H9.5C7.57 0 6 1.57 6 3.5V5H4V8H6V16H9V8H11.5L12 5H9V3.5C9 3.229 9.229 3 9.5 3Z" fill="var(--fill-0, white)"/>
<path d="M9.5 3H12V0H9.5C7.57 0 6 1.57 6 3.5V5H4V8H6V16H9V8H11.5L12 5H9V3.5C9 3.229 9.229 3 9.5 3Z" fill="var(--fill-1, white)"/>
<path d="M9.5 3H12V0H9.5C7.57 0 6 1.57 6 3.5V5H4V8H6V16H9V8H11.5L12 5H9V3.5C9 3.229 9.229 3 9.5 3Z" stroke="var(--stroke-0, white)"/>
<path d="M9.5 3H12V0H9.5C7.57 0 6 1.57 6 3.5V5H4V8H6V16H9V8H11.5L12 5H9V3.5C9 3.229 9.229 3 9.5 3Z" stroke="var(--stroke-1, white)"/>
</g>
</g>
</svg>
