<svg preserveAspectRatio="none" width="100%" height="100%" overflow="visible" style="display: block;" viewBox="0 0 16 16" fill="none" xmlns="http://www.w3.org/2000/svg">
<g id="oxy-social-icons-icon-instagram" clip-path="url(#clip0_4332_1722)">
<g id="Vector">
<path d="M8 1.4405C10.1375 1.4405 10.3905 1.45 11.231 1.4875C12.0125 1.522 12.434 1.653 12.7155 1.7625C13.0875 1.9065 13.356 2.0815 13.634 2.3595C13.9155 2.641 14.087 2.9065 14.234 3.2785C14.3435 3.56 14.4745 3.9845 14.509 4.763C14.5465 5.607 14.556 5.86 14.556 7.9945C14.556 10.129 14.5465 10.385 14.509 11.226C14.4745 12.0075 14.3435 12.429 14.234 12.7105C14.09 13.0825 13.9155 13.351 13.637 13.629C13.3555 13.9105 13.09 14.082 12.7185 14.229C12.437 14.3385 12.012 14.4695 11.234 14.504C10.39 14.5415 10.137 14.551 8.0025 14.551C5.868 14.551 5.612 14.5415 4.771 14.504C3.9895 14.4695 3.568 14.3385 3.2865 14.229C2.9145 14.085 2.646 13.9105 2.3675 13.632C2.086 13.3505 1.9145 13.085 1.7675 12.7135C1.658 12.432 1.527 12.007 1.4925 11.229C1.455 10.385 1.4455 10.132 1.4455 7.9975C1.4455 5.863 1.455 5.607 1.4925 4.766C1.527 3.9845 1.658 3.563 1.7675 3.2815C1.9115 2.9095 2.0865 2.641 2.3645 2.3625C2.646 2.081 2.9115 1.9095 3.2835 1.7625C3.565 1.653 3.9895 1.522 4.768 1.4875C5.6085 1.45 5.862 1.4405 7.9995 1.4405H8ZM8 0C5.828 0 5.5565 0.0095 4.703 0.047C3.853 0.0845 3.2685 0.222 2.7625 0.419C2.2345 0.625 1.7875 0.897 1.344 1.344C0.897 1.788 0.625 2.2345 0.419 2.7595C0.222 3.269 0.0845 3.85 0.047 4.7C0.0095 5.5565 0 5.828 0 8C0 10.172 0.0095 10.4435 0.047 11.297C0.0845 12.147 0.222 12.7315 0.419 13.2375C0.6255 13.7655 0.897 14.2125 1.344 14.656C1.7875 15.0995 2.2345 15.375 2.7595 15.578C3.269 15.775 3.85 15.9125 4.7 15.95C5.553 15.9875 5.825 15.997 7.997 15.997C10.169 15.997 10.441 15.9875 11.294 15.95C12.144 15.9125 12.7285 15.775 13.2345 15.578C13.7595 15.375 14.2065 15.1 14.65 14.656C15.0935 14.212 15.369 13.7655 15.572 13.2405C15.769 12.731 15.9065 12.15 15.944 11.3C15.9815 10.447 15.991 10.175 15.991 8.003C15.991 5.831 15.9815 5.5595 15.944 4.706C15.9065 3.856 15.769 3.2715 15.572 2.7655C15.375 2.234 15.103 1.7875 14.6565 1.3435C14.213 0.9 13.766 0.6245 13.241 0.4215C12.7315 0.2245 12.1505 0.087 11.3005 0.0495C10.4445 0.009 10.1725 -0.0005 8.0005 -0.0005L8 0Z" fill="white"/>
<path d="M8 1.4405C10.1375 1.4405 10.3905 1.45 11.231 1.4875C12.0125 1.522 12.434 1.653 12.7155 1.7625C13.0875 1.9065 13.356 2.0815 13.634 2.3595C13.9155 2.641 14.087 2.9065 14.234 3.2785C14.3435 3.56 14.4745 3.9845 14.509 4.763C14.5465 5.607 14.556 5.86 14.556 7.9945C14.556 10.129 14.5465 10.385 14.509 11.226C14.4745 12.0075 14.3435 12.429 14.234 12.7105C14.09 13.0825 13.9155 13.351 13.637 13.629C13.3555 13.9105 13.09 14.082 12.7185 14.229C12.437 14.3385 12.012 14.4695 11.234 14.504C10.39 14.5415 10.137 14.551 8.0025 14.551C5.868 14.551 5.612 14.5415 4.771 14.504C3.9895 14.4695 3.568 14.3385 3.2865 14.229C2.9145 14.085 2.646 13.9105 2.3675 13.632C2.086 13.3505 1.9145 13.085 1.7675 12.7135C1.658 12.432 1.527 12.007 1.4925 11.229C1.455 10.385 1.4455 10.132 1.4455 7.9975C1.4455 5.863 1.455 5.607 1.4925 4.766C1.527 3.9845 1.658 3.563 1.7675 3.2815C1.9115 2.9095 2.0865 2.641 2.3645 2.3625C2.646 2.081 2.9115 1.9095 3.2835 1.7625C3.565 1.653 3.9895 1.522 4.768 1.4875C5.6085 1.45 5.862 1.4405 7.9995 1.4405H8ZM8 0C5.828 0 5.5565 0.0095 4.703 0.047C3.853 0.0845 3.2685 0.222 2.7625 0.419C2.2345 0.625 1.7875 0.897 1.344 1.344C0.897 1.788 0.625 2.2345 0.419 2.7595C0.222 3.269 0.0845 3.85 0.047 4.7C0.0095 5.5565 0 5.828 0 8C0 10.172 0.0095 10.4435 0.047 11.297C0.0845 12.147 0.222 12.7315 0.419 13.2375C0.6255 13.7655 0.897 14.2125 1.344 14.656C1.7875 15.0995 2.2345 15.375 2.7595 15.578C3.269 15.775 3.85 15.9125 4.7 15.95C5.553 15.9875 5.825 15.997 7.997 15.997C10.169 15.997 10.441 15.9875 11.294 15.95C12.144 15.9125 12.7285 15.775 13.2345 15.578C13.7595 15.375 14.2065 15.1 14.65 14.656C15.0935 14.212 15.369 13.7655 15.572 13.2405C15.769 12.731 15.9065 12.15 15.944 11.3C15.9815 10.447 15.991 10.175 15.991 8.003C15.991 5.831 15.9815 5.5595 15.944 4.706C15.9065 3.856 15.769 3.2715 15.572 2.7655C15.375 2.234 15.103 1.7875 14.6565 1.3435C14.213 0.9 13.766 0.6245 13.241 0.4215C12.7315 0.2245 12.1505 0.087 11.3005 0.0495C10.4445 0.009 10.1725 -0.0005 8.0005 -0.0005L8 0Z" fill="white"/>
<path d="M8 1.4405C10.1375 1.4405 10.3905 1.45 11.231 1.4875C12.0125 1.522 12.434 1.653 12.7155 1.7625C13.0875 1.9065 13.356 2.0815 13.634 2.3595C13.9155 2.641 14.087 2.9065 14.234 3.2785C14.3435 3.56 14.4745 3.9845 14.509 4.763C14.5465 5.607 14.556 5.86 14.556 7.9945C14.556 10.129 14.5465 10.385 14.509 11.226C14.4745 12.0075 14.3435 12.429 14.234 12.7105C14.09 13.0825 13.9155 13.351 13.637 13.629C13.3555 13.9105 13.09 14.082 12.7185 14.229C12.437 14.3385 12.012 14.4695 11.234 14.504C10.39 14.5415 10.137 14.551 8.0025 14.551C5.868 14.551 5.612 14.5415 4.771 14.504C3.9895 14.4695 3.568 14.3385 3.2865 14.229C2.9145 14.085 2.646 13.9105 2.3675 13.632C2.086 13.3505 1.9145 13.085 1.7675 12.7135C1.658 12.432 1.527 12.007 1.4925 11.229C1.455 10.385 1.4455 10.132 1.4455 7.9975C1.4455 5.863 1.455 5.607 1.4925 4.766C1.527 3.9845 1.658 3.563 1.7675 3.2815C1.9115 2.9095 2.0865 2.641 2.3645 2.3625C2.646 2.081 2.9115 1.9095 3.2835 1.7625C3.565 1.653 3.9895 1.522 4.768 1.4875C5.6085 1.45 5.862 1.4405 7.9995 1.4405H8ZM8 0C5.828 0 5.5565 0.0095 4.703 0.047C3.853 0.0845 3.2685 0.222 2.7625 0.419C2.2345 0.625 1.7875 0.897 1.344 1.344C0.897 1.788 0.625 2.2345 0.419 2.7595C0.222 3.269 0.0845 3.85 0.047 4.7C0.0095 5.5565 0 5.828 0 8C0 10.172 0.0095 10.4435 0.047 11.297C0.0845 12.147 0.222 12.7315 0.419 13.2375C0.6255 13.7655 0.897 14.2125 1.344 14.656C1.7875 15.0995 2.2345 15.375 2.7595 15.578C3.269 15.775 3.85 15.9125 4.7 15.95C5.553 15.9875 5.825 15.997 7.997 15.997C10.169 15.997 10.441 15.9875 11.294 15.95C12.144 15.9125 12.7285 15.775 13.2345 15.578C13.7595 15.375 14.2065 15.1 14.65 14.656C15.0935 14.212 15.369 13.7655 15.572 13.2405C15.769 12.731 15.9065 12.15 15.944 11.3C15.9815 10.447 15.991 10.175 15.991 8.003C15.991 5.831 15.9815 5.5595 15.944 4.706C15.9065 3.856 15.769 3.2715 15.572 2.7655C15.375 2.234 15.103 1.7875 14.6565 1.3435C14.213 0.9 13.766 0.6245 13.241 0.4215C12.7315 0.2245 12.1505 0.087 11.3005 0.0495C10.4445 0.009 10.1725 -0.0005 8.0005 -0.0005L8 0Z" stroke="var(--stroke-0, white)"/>
<path d="M8 1.4405C10.1375 1.4405 10.3905 1.45 11.231 1.4875C12.0125 1.522 12.434 1.653 12.7155 1.7625C13.0875 1.9065 13.356 2.0815 13.634 2.3595C13.9155 2.641 14.087 2.9065 14.234 3.2785C14.3435 3.56 14.4745 3.9845 14.509 4.763C14.5465 5.607 14.556 5.86 14.556 7.9945C14.556 10.129 14.5465 10.385 14.509 11.226C14.4745 12.0075 14.3435 12.429 14.234 12.7105C14.09 13.0825 13.9155 13.351 13.637 13.629C13.3555 13.9105 13.09 14.082 12.7185 14.229C12.437 14.3385 12.012 14.4695 11.234 14.504C10.39 14.5415 10.137 14.551 8.0025 14.551C5.868 14.551 5.612 14.5415 4.771 14.504C3.9895 14.4695 3.568 14.3385 3.2865 14.229C2.9145 14.085 2.646 13.9105 2.3675 13.632C2.086 13.3505 1.9145 13.085 1.7675 12.7135C1.658 12.432 1.527 12.007 1.4925 11.229C1.455 10.385 1.4455 10.132 1.4455 7.9975C1.4455 5.863 1.455 5.607 1.4925 4.766C1.527 3.9845 1.658 3.563 1.7675 3.2815C1.9115 2.9095 2.0865 2.641 2.3645 2.3625C2.646 2.081 2.9115 1.9095 3.2835 1.7625C3.565 1.653 3.9895 1.522 4.768 1.4875C5.6085 1.45 5.862 1.4405 7.9995 1.4405H8ZM8 0C5.828 0 5.5565 0.0095 4.703 0.047C3.853 0.0845 3.2685 0.222 2.7625 0.419C2.2345 0.625 1.7875 0.897 1.344 1.344C0.897 1.788 0.625 2.2345 0.419 2.7595C0.222 3.269 0.0845 3.85 0.047 4.7C0.0095 5.5565 0 5.828 0 8C0 10.172 0.0095 10.4435 0.047 11.297C0.0845 12.147 0.222 12.7315 0.419 13.2375C0.6255 13.7655 0.897 14.2125 1.344 14.656C1.7875 15.0995 2.2345 15.375 2.7595 15.578C3.269 15.775 3.85 15.9125 4.7 15.95C5.553 15.9875 5.825 15.997 7.997 15.997C10.169 15.997 10.441 15.9875 11.294 15.95C12.144 15.9125 12.7285 15.775 13.2345 15.578C13.7595 15.375 14.2065 15.1 14.65 14.656C15.0935 14.212 15.369 13.7655 15.572 13.2405C15.769 12.731 15.9065 12.15 15.944 11.3C15.9815 10.447 15.991 10.175 15.991 8.003C15.991 5.831 15.9815 5.5595 15.944 4.706C15.9065 3.856 15.769 3.2715 15.572 2.7655C15.375 2.234 15.103 1.7875 14.6565 1.3435C14.213 0.9 13.766 0.6245 13.241 0.4215C12.7315 0.2245 12.1505 0.087 11.3005 0.0495C10.4445 0.009 10.1725 -0.0005 8.0005 -0.0005L8 0Z" stroke="var(--stroke-1, white)"/>
</g>
<g id="Vector_2">
<path d="M8 3.8905C5.7315 3.8905 3.8905 5.731 3.8905 8C3.8905 10.269 5.731 12.1095 8 12.1095C10.269 12.1095 12.1095 10.269 12.1095 8C12.1095 5.7315 10.269 3.8905 8 3.8905ZM8 10.6655C6.528 10.6655 5.3345 9.472 5.3345 8C5.3345 6.528 6.528 5.3345 8 5.3345C9.472 5.3345 10.6655 6.528 10.6655 8C10.6655 9.472 9.472 10.6655 8 10.6655Z" fill="white"/>
<path d="M8 3.8905C5.7315 3.8905 3.8905 5.731 3.8905 8C3.8905 10.269 5.731 12.1095 8 12.1095C10.269 12.1095 12.1095 10.269 12.1095 8C12.1095 5.7315 10.269 3.8905 8 3.8905ZM8 10.6655C6.528 10.6655 5.3345 9.472 5.3345 8C5.3345 6.528 6.528 5.3345 8 5.3345C9.472 5.3345 10.6655 6.528 10.6655 8C10.6655 9.472 9.472 10.6655 8 10.6655Z" fill="white"/>
<path d="M8 3.8905C5.7315 3.8905 3.8905 5.731 3.8905 8C3.8905 10.269 5.731 12.1095 8 12.1095C10.269 12.1095 12.1095 10.269 12.1095 8C12.1095 5.7315 10.269 3.8905 8 3.8905ZM8 10.6655C6.528 10.6655 5.3345 9.472 5.3345 8C5.3345 6.528 6.528 5.3345 8 5.3345C9.472 5.3345 10.6655 6.528 10.6655 8C10.6655 9.472 9.472 10.6655 8 10.6655Z" stroke="var(--stroke-0, white)"/>
<path d="M8 3.8905C5.7315 3.8905 3.8905 5.731 3.8905 8C3.8905 10.269 5.731 12.1095 8 12.1095C10.269 12.1095 12.1095 10.269 12.1095 8C12.1095 5.7315 10.269 3.8905 8 3.8905ZM8 10.6655C6.528 10.6655 5.3345 9.472 5.3345 8C5.3345 6.528 6.528 5.3345 8 5.3345C9.472 5.3345 10.6655 6.528 10.6655 8C10.6655 9.472 9.472 10.6655 8 10.6655Z" stroke="var(--stroke-1, white)"/>
</g>
<g id="Vector_3">
<path d="M13.231 3.728C13.231 4.258 12.8015 4.6875 12.2715 4.6875C11.7415 4.6875 11.312 4.258 11.312 3.728C11.312 3.198 11.7415 2.7685 12.2715 2.7685C12.8015 2.7685 13.231 3.198 13.231 3.728Z" fill="white"/>
<path d="M13.231 3.728C13.231 4.258 12.8015 4.6875 12.2715 4.6875C11.7415 4.6875 11.312 4.258 11.312 3.728C11.312 3.198 11.7415 2.7685 12.2715 2.7685C12.8015 2.7685 13.231 3.198 13.231 3.728Z" fill="white"/>
<path d="M13.231 3.728C13.231 4.258 12.8015 4.6875 12.2715 4.6875C11.7415 4.6875 11.312 4.258 11.312 3.728C11.312 3.198 11.7415 2.7685 12.2715 2.7685C12.8015 2.7685 13.231 3.198 13.231 3.728Z" stroke="var(--stroke-0, white)"/>
<path d="M13.231 3.728C13.231 4.258 12.8015 4.6875 12.2715 4.6875C11.7415 4.6875 11.312 4.258 11.312 3.728C11.312 3.198 11.7415 2.7685 12.2715 2.7685C12.8015 2.7685 13.231 3.198 13.231 3.728Z" stroke="var(--stroke-1, white)"/>
</g>
</g>
<defs>
<clipPath id="clip0_4332_1722">
<rect width="16" height="16" fill="white"/>
</clipPath>
</defs>
</svg>
