<svg preserveAspectRatio="none" width="100%" height="100%" overflow="visible" style="display: block;" viewBox="0 0 16 16" fill="none" xmlns="http://www.w3.org/2000/svg">
<g id="oxy-social-icons-icon-linkedin">
<g id="Vector">
<path d="M6 6H8.7675V7.4185H8.807C9.192 6.728 10.1345 6 11.539 6C14.46 6 15 7.8185 15 10.1835V15H12.1155V10.73C12.1155 9.7115 12.0945 8.4015 10.615 8.4015C9.1125 8.4015 8.8835 9.5105 8.8835 10.656V15H6V6Z" fill="white"/>
<path d="M6 6H8.7675V7.4185H8.807C9.192 6.728 10.1345 6 11.539 6C14.46 6 15 7.8185 15 10.1835V15H12.1155V10.73C12.1155 9.7115 12.0945 8.4015 10.615 8.4015C9.1125 8.4015 8.8835 9.5105 8.8835 10.656V15H6V6Z" fill="white"/>
<path d="M6 6H8.7675V7.4185H8.807C9.192 6.728 10.1345 6 11.539 6C14.46 6 15 7.8185 15 10.1835V15H12.1155V10.73C12.1155 9.7115 12.0945 8.4015 10.615 8.4015C9.1125 8.4015 8.8835 9.5105 8.8835 10.656V15H6V6Z" stroke="var(--stroke-0, white)"/>
<path d="M6 6H8.7675V7.4185H8.807C9.192 6.728 10.1345 6 11.539 6C14.46 6 15 7.8185 15 10.1835V15H12.1155V10.73C12.1155 9.7115 12.0945 8.4015 10.615 8.4015C9.1125 8.4015 8.8835 9.5105 8.8835 10.656V15H6V6Z" stroke="var(--stroke-1, white)"/>
</g>
<g id="Vector_2">
<path d="M1 6H4V15H1V6Z" fill="white"/>
<path d="M1 6H4V15H1V6Z" fill="white"/>
<path d="M1 6H4V15H1V6Z" stroke="var(--stroke-0, white)"/>
<path d="M1 6H4V15H1V6Z" stroke="var(--stroke-1, white)"/>
</g>
<g id="Vector_3">
<path d="M4 3.5C4 4.3285 3.3285 5 2.5 5C1.6715 5 1 4.3285 1 3.5C1 2.6715 1.6715 2 2.5 2C3.3285 2 4 2.6715 4 3.5Z" fill="white"/>
<path d="M4 3.5C4 4.3285 3.3285 5 2.5 5C1.6715 5 1 4.3285 1 3.5C1 2.6715 1.6715 2 2.5 2C3.3285 2 4 2.6715 4 3.5Z" fill="white"/>
<path d="M4 3.5C4 4.3285 3.3285 5 2.5 5C1.6715 5 1 4.3285 1 3.5C1 2.6715 1.6715 2 2.5 2C3.3285 2 4 2.6715 4 3.5Z" stroke="var(--stroke-0, white)"/>
<path d="M4 3.5C4 4.3285 3.3285 5 2.5 5C1.6715 5 1 4.3285 1 3.5C1 2.6715 1.6715 2 2.5 2C3.3285 2 4 2.6715 4 3.5Z" stroke="var(--stroke-1, white)"/>
</g>
</g>
</svg>
